# xmcd CD database file
#
# Track frame offsets:
#	183
#	34645
#	51368
#	67505
#	98405
#	140153
#	166225
#	183778
#	212650
#	232043
#	273728
#
# Disc length: 4002 seconds
#
# Revision: 2
# Processed by: cddbd v1.4b41PL1 Copyright (c) Steve Scherf et al.
# Submitted via: Feurio! 1.52 - http://www.feurio.com
#
DISCID=930fa00b
DTITLE=Alexis Korner and Friends - The Party Album
DYEAR=1900
DGENRE=
TTITLE0=Thing Ain´t What They Used To Be
TTITLE1=Captain´s Tiger
TTITLE2=Skipping
TTITLE3=Spoonful
TTITLE4=A. Finkless Cafe, B. Dooji Hooji 
TTITLE5=Whole Mess Of Blues
TTITLE6=Lining Track
TTITLE7=Robert Johnson
TTITLE8=Hey Pretty Mama
TTITLE9=Hi-Heel Sneekers
TTITLE10=Stormy Monday Blues
EXTD=
EXTT0=
EXTT1=
EXTT2=
EXTT3=
EXTT4=
EXTT5=
EXTT6=
EXTT7=
EXTT8=
EXTT9=
EXTT10=
PLAYORDER=
